<svg width="1200" height="630" viewBox="0 0 1200 630" fill="none" xmlns="http://www.w3.org/2000/svg">
  <!-- General gradient -->
  <defs>
    <linearGradient id="general-gradient" x1="0%" y1="0%" x2="100%" y2="100%">
      <stop offset="0%" style="stop-color:#0f766e;stop-opacity:1" />
      <stop offset="50%" style="stop-color:#06b6d4;stop-opacity:1" />
      <stop offset="100%" style="stop-color:#3b82f6;stop-opacity:1" />
    </linearGradient>
    
    <!-- Dot pattern -->
    <pattern id="dots" width="30" height="30" patternUnits="userSpaceOnUse">
      <circle cx="15" cy="15" r="1.5" fill="white" opacity="0.1"/>
    </pattern>
    
    <!-- Wave pattern -->
    <pattern id="waves" width="100" height="50" patternUnits="userSpaceOnUse">
      <path d="M 0 25 Q 25 15, 50 25 T 100 25" stroke="white" stroke-width="1" opacity="0.05" fill="none"/>
    </pattern>
  </defs>
  
  <!-- Background -->
  <rect width="1200" height="630" fill="url(#general-gradient)"/>
  <rect width="1200" height="630" fill="url(#dots)"/>
  <rect width="1200" height="630" fill="url(#waves)"/>
  
  <!-- Abstract flowing shapes -->
  <g opacity="0.1">
    <ellipse cx="150" cy="200" rx="120" ry="80" fill="white" transform="rotate(-20 150 200)"/>
    <ellipse cx="1050" cy="430" rx="150" ry="100" fill="white" transform="rotate(15 1050 430)"/>
    <circle cx="600" cy="100" r="60" fill="white"/>
    <circle cx="400" cy="530" r="70" fill="white"/>
  </g>
  
  <!-- Curved accent lines -->
  <g stroke="white" stroke-width="2" opacity="0.1" fill="none">
    <path d="M 0 200 Q 300 150, 600 200 T 1200 200"/>
    <path d="M 0 430 Q 300 480, 600 430 T 1200 430"/>
  </g>
  
  <!-- Center icon: abstract layers -->
  <g transform="translate(600, 315)" opacity="0.25">
    <rect x="-60" y="-40" width="120" height="80" rx="8" stroke="white" stroke-width="5" fill="none"/>
    <rect x="-50" y="-30" width="100" height="60" rx="6" stroke="white" stroke-width="4" fill="none"/>
    <rect x="-40" y="-20" width="80" height="40" rx="4" stroke="white" stroke-width="3" fill="none"/>
  </g>
  
  <!-- Corner decorative elements -->
  <g opacity="0.15">
    <g transform="translate(50, 50)">
      <rect x="-20" y="-20" width="40" height="40" rx="8" stroke="white" stroke-width="3" fill="none"/>
    </g>
    <g transform="translate(1150, 580)">
      <circle cx="0" cy="0" r="25" stroke="white" stroke-width="3" fill="none"/>
      <circle cx="0" cy="0" r="15" stroke="white" stroke-width="2" fill="none"/>
    </g>
  </g>
  
  <!-- Scattered accent points -->
  <g fill="white" opacity="0.1">
    <circle cx="250" cy="400" r="5"/>
    <circle cx="800" cy="200" r="4"/>
    <circle cx="950" cy="350" r="6"/>
    <circle cx="350" cy="150" r="4"/>
  </g>
</svg>
