<svg width="1200" height="630" viewBox="0 0 1200 630" fill="none" xmlns="http://www.w3.org/2000/svg">
  <!-- Design-themed gradient -->
  <defs>
    <linearGradient id="design-gradient" x1="0%" y1="0%" x2="100%" y2="100%">
      <stop offset="0%" style="stop-color:#ec4899;stop-opacity:1" />
      <stop offset="50%" style="stop-color:#8b5cf6;stop-opacity:1" />
      <stop offset="100%" style="stop-color:#6366f1;stop-opacity:1" />
    </linearGradient>
    
    <!-- Geometric pattern -->
    <pattern id="geo-pattern" width="120" height="120" patternUnits="userSpaceOnUse">
      <circle cx="60" cy="60" r="2" fill="white" opacity="0.1"/>
      <path d="M 60 20 L 100 60 L 60 100 L 20 60 Z" fill="none" stroke="white" stroke-width="1" opacity="0.05"/>
    </pattern>
  </defs>
  
  <!-- Background -->
  <rect width="1200" height="630" fill="url(#design-gradient)"/>
  <rect width="1200" height="630" fill="url(#geo-pattern)"/>
  
  <!-- Abstract shapes -->
  <g opacity="0.1">
    <circle cx="200" cy="150" r="100" fill="white"/>
    <circle cx="1000" cy="480" r="120" fill="white"/>
    <rect x="100" y="450" width="100" height="100" fill="white" transform="rotate(30 150 500)"/>
    <polygon points="900,100 950,150 900,200 850,150" fill="white"/>
  </g>
  
  <!-- Geometric accent lines -->
  <g stroke="white" stroke-width="2" opacity="0.1">
    <line x1="0" y1="315" x2="400" y2="315"/>
    <line x1="800" y1="315" x2="1200" y2="315"/>
    <line x1="600" y1="0" x2="600" y2="200"/>
    <line x1="600" y1="430" x2="600" y2="630"/>
  </g>
  
  <!-- Center design icon: pen tool -->
  <g transform="translate(600, 315)" opacity="0.25">
    <path 
      d="M -40 -60 L -40 60 L 0 40 L 40 60 L 40 -60 L 0 -40 Z" 
      stroke="white" 
      stroke-width="6" 
      fill="none"
      stroke-linejoin="round"
    />
    <circle cx="0" cy="0" r="15" fill="white"/>
  </g>
  
  <!-- Corner design elements -->
  <g opacity="0.15">
    <g transform="translate(60, 60)">
      <circle cx="0" cy="0" r="30" stroke="white" stroke-width="3" fill="none"/>
      <circle cx="0" cy="0" r="15" fill="white"/>
    </g>
    <g transform="translate(1140, 570)">
      <polygon points="0,-25 22,-8 14,20 -14,20 -22,-8" stroke="white" stroke-width="3" fill="none"/>
    </g>
  </g>
  
  <!-- Floating particles -->
  <g fill="white" opacity="0.08">
    <circle cx="300" cy="300" r="4"/>
    <circle cx="900" cy="330" r="3"/>
    <circle cx="450" cy="500" r="5"/>
    <circle cx="750" cy="150" r="4"/>
  </g>
</svg>
